<?xml version="1.0" ?>
<!-- Uploaded to: SVG Repo, www.svgrepo.com, Generator: SVG Repo Mixer Tools -->
<svg width="800px" height="800px" viewBox="0 0 64 64" id="Layer_1" version="1.1" xml:space="preserve" xmlns="http://www.w3.org/2000/svg" xmlns:xlink="http://www.w3.org/1999/xlink">
<style type="text/css">
	.st0{fill:#FFFFFF;}
	.st1{fill:#101820;}
</style>
<g>
<g>
<circle class="st0" cx="32" cy="32" r="32"/>
</g>
<g>
<path class="st1" d="M48.268,13c-0.276,0-0.5-0.224-0.5-0.5c0-0.827-0.673-1.5-1.5-1.5c-0.534,0-1.032,0.287-1.299,0.75    c-0.138,0.238-0.444,0.32-0.683,0.182c-0.239-0.138-0.321-0.444-0.182-0.683C44.548,10.479,45.378,10,46.268,10    c1.378,0,2.5,1.122,2.5,2.5C48.768,12.776,48.544,13,48.268,13z"/>
</g>
<g>
<path class="st1" d="M48.268,13c-0.276,0-0.5-0.224-0.5-0.5c0-1.378,1.122-2.5,2.5-2.5c0.89,0,1.72,0.479,2.165,1.249    c0.139,0.239,0.057,0.545-0.182,0.683c-0.24,0.138-0.545,0.056-0.683-0.182C51.3,11.287,50.802,11,50.268,11    c-0.827,0-1.5,0.673-1.5,1.5C48.768,12.776,48.544,13,48.268,13z"/>
</g>
<g>
<path class="st1" d="M49.268,13h-2c-0.276,0-0.5-0.224-0.5-0.5s0.224-0.5,0.5-0.5h2c0.276,0,0.5,0.224,0.5,0.5    S49.544,13,49.268,13z"/>
</g>
<g>
<path class="st1" d="M16,27h-5c-0.276,0-0.5-0.224-0.5-0.5S10.724,26,11,26h5c0.276,0,0.5,0.224,0.5,0.5S16.276,27,16,27z"/>
</g>
<g>
<path class="st1" d="M36,51c-0.276,0-0.5-0.224-0.5-0.5V23h-7v27.5c0,0.276-0.224,0.5-0.5,0.5s-0.5-0.224-0.5-0.5v-28    c0-0.276,0.224-0.5,0.5-0.5h8c0.276,0,0.5,0.224,0.5,0.5v28C36.5,50.776,36.276,51,36,51z"/>
</g>
<g>
<path class="st1" d="M28,51c-0.276,0-0.5-0.224-0.5-0.5V19h-1v31.5c0,0.276-0.224,0.5-0.5,0.5s-0.5-0.224-0.5-0.5v-32    c0-0.276,0.224-0.5,0.5-0.5h2c0.276,0,0.5,0.224,0.5,0.5v32C28.5,50.776,28.276,51,28,51z"/>
</g>
<g>
<path class="st1" d="M38,51c-0.276,0-0.5-0.224-0.5-0.5V19h-1v31.5c0,0.276-0.224,0.5-0.5,0.5s-0.5-0.224-0.5-0.5v-32    c0-0.276,0.224-0.5,0.5-0.5h2c0.276,0,0.5,0.224,0.5,0.5v32C38.5,50.776,38.276,51,38,51z"/>
</g>
<g>
<path class="st1" d="M28,19h-2c-0.185,0-0.354-0.102-0.441-0.264s-0.077-0.36,0.025-0.513l6-9c0.186-0.278,0.646-0.278,0.832,0    l1,1.5c0.112,0.168,0.112,0.387,0,0.555l-5,7.5C28.323,18.917,28.167,19,28,19z M26.934,18h0.798l4.667-7L32,10.401L26.934,18z"/>
</g>
<g>
<path class="st1" d="M38,19h-2c-0.167,0-0.323-0.083-0.416-0.223l-5-7.5c-0.112-0.168-0.112-0.387,0-0.555l1-1.5    c0.186-0.278,0.646-0.278,0.832,0l6,9c0.102,0.153,0.112,0.351,0.025,0.513S38.185,19,38,19z M36.268,18h0.798L32,10.401    L31.601,11L36.268,18z"/>
</g>
<g>
<path class="st1" d="M32,10c-0.276,0-0.5-0.224-0.5-0.5v-4C31.5,5.224,31.724,5,32,5s0.5,0.224,0.5,0.5v4    C32.5,9.776,32.276,10,32,10z"/>
</g>
<g>
<path class="st1" d="M33,7h-2c-0.276,0-0.5-0.224-0.5-0.5S30.724,6,31,6h2c0.276,0,0.5,0.224,0.5,0.5S33.276,7,33,7z"/>
</g>
<g>
<path class="st1" d="M31,23c-0.276,0-0.5-0.224-0.5-0.5v-4c0-0.276,0.224-0.5,0.5-0.5s0.5,0.224,0.5,0.5v4    C31.5,22.776,31.276,23,31,23z"/>
</g>
<g>
<path class="st1" d="M33,23c-0.276,0-0.5-0.224-0.5-0.5v-4c0-0.276,0.224-0.5,0.5-0.5s0.5,0.224,0.5,0.5v4    C33.5,22.776,33.276,23,33,23z"/>
</g>
<g>
<path class="st1" d="M34,51c-0.276,0-0.5-0.224-0.5-0.5V40.248c0-1.106-0.177-2.199-0.527-3.248    c-0.213-0.638-0.545-1.237-0.973-1.757c-0.428,0.52-0.76,1.119-0.973,1.757c-0.35,1.049-0.527,2.142-0.527,3.248V50.5    c0,0.276-0.224,0.5-0.5,0.5s-0.5-0.224-0.5-0.5V40.248c0-1.214,0.195-2.414,0.579-3.564c0.316-0.951,0.859-1.828,1.568-2.537    c0.195-0.195,0.512-0.195,0.707,0c0.709,0.709,1.251,1.586,1.568,2.537c0.384,1.151,0.579,2.35,0.579,3.564V50.5    C34.5,50.776,34.276,51,34,51z"/>
</g>
<g>
<path class="st1" d="M34,45h-4c-0.276,0-0.5-0.224-0.5-0.5S29.724,44,30,44h4c0.276,0,0.5,0.224,0.5,0.5S34.276,45,34,45z"/>
</g>
<g>
<path class="st1" d="M32,45c-0.276,0-0.5-0.224-0.5-0.5v-2.764c0-0.276,0.224-0.5,0.5-0.5s0.5,0.224,0.5,0.5V44.5    C32.5,44.776,32.276,45,32,45z"/>
</g>
<g>
<path class="st1" d="M32,42.236c-0.276,0-0.5-0.224-0.5-0.5c0-1.135-0.617-2.18-1.61-2.729c-0.242-0.133-0.33-0.438-0.196-0.679    c0.132-0.241,0.437-0.33,0.679-0.196c0.7,0.386,1.258,0.959,1.626,1.638c0.369-0.678,0.927-1.251,1.626-1.638    c0.242-0.134,0.546-0.045,0.679,0.196c0.134,0.242,0.046,0.546-0.196,0.679c-0.993,0.549-1.61,1.594-1.61,2.729    C32.5,42.012,32.276,42.236,32,42.236z"/>
</g>
<g>
<path class="st1" d="M32,27c-0.276,0-0.5-0.224-0.5-0.5v-1c0-0.276,0.224-0.5,0.5-0.5s0.5,0.224,0.5,0.5v1    C32.5,26.776,32.276,27,32,27z"/>
</g>
<g>
<path class="st1" d="M32,30c-0.276,0-0.5-0.224-0.5-0.5v-1c0-0.276,0.224-0.5,0.5-0.5s0.5,0.224,0.5,0.5v1    C32.5,29.776,32.276,30,32,30z"/>
</g>
<g>
<path class="st1" d="M32,33c-0.276,0-0.5-0.224-0.5-0.5v-1c0-0.276,0.224-0.5,0.5-0.5s0.5,0.224,0.5,0.5v1    C32.5,32.776,32.276,33,32,33z"/>
</g>
<g>
<path class="st1" d="M8,41c-0.276,0-0.5-0.224-0.5-0.5S7.724,40,8,40c15.359,0,17.422-17.795,17.503-18.553    c0.028-0.274,0.272-0.477,0.55-0.444c0.274,0.029,0.474,0.275,0.444,0.549C26.477,21.747,24.262,41,8,41z"/>
</g>
<g>
<path class="st1" d="M13,51c-0.276,0-0.5-0.224-0.5-0.5v-9c0-0.276,0.224-0.5,0.5-0.5s0.5,0.224,0.5,0.5v9    C13.5,50.776,13.276,51,13,51z"/>
</g>
<g>
<path class="st1" d="M11,51c-0.276,0-0.5-0.224-0.5-0.5v-8c0-0.276,0.224-0.5,0.5-0.5s0.5,0.224,0.5,0.5v8    C11.5,50.776,11.276,51,11,51z"/>
</g>
<g>
<path class="st1" d="M18,51c-0.276,0-0.5-0.224-0.5-0.5v-11c0-0.276,0.224-0.5,0.5-0.5s0.5,0.224,0.5,0.5v11    C18.5,50.776,18.276,51,18,51z"/>
</g>
<g>
<path class="st1" d="M16,51c-0.276,0-0.5-0.224-0.5-0.5v-10c0-0.276,0.224-0.5,0.5-0.5s0.5,0.224,0.5,0.5v10    C16.5,50.776,16.276,51,16,51z"/>
</g>
<g>
<path class="st1" d="M23,51c-0.276,0-0.5-0.224-0.5-0.5v-16c0-0.276,0.224-0.5,0.5-0.5s0.5,0.224,0.5,0.5v16    C23.5,50.776,23.276,51,23,51z"/>
</g>
<g>
<path class="st1" d="M21,51c-0.276,0-0.5-0.224-0.5-0.5v-14c0-0.276,0.224-0.5,0.5-0.5s0.5,0.224,0.5,0.5v14    C21.5,50.776,21.276,51,21,51z"/>
</g>
<g>
<path class="st1" d="M56,41c-16.262,0-18.477-19.253-18.497-19.448c-0.029-0.274,0.17-0.521,0.444-0.549    c0.277-0.026,0.521,0.17,0.55,0.444C38.578,22.205,40.641,40,56,40c0.276,0,0.5,0.224,0.5,0.5S56.276,41,56,41z"/>
</g>
<g>
<path class="st1" d="M53,51c-0.276,0-0.5-0.224-0.5-0.5v-8c0-0.276,0.224-0.5,0.5-0.5s0.5,0.224,0.5,0.5v8    C53.5,50.776,53.276,51,53,51z"/>
</g>
<g>
<path class="st1" d="M51,51c-0.276,0-0.5-0.224-0.5-0.5v-9c0-0.276,0.224-0.5,0.5-0.5s0.5,0.224,0.5,0.5v9    C51.5,50.776,51.276,51,51,51z"/>
</g>
<g>
<path class="st1" d="M46,51c-0.276,0-0.5-0.224-0.5-0.5v-11c0-0.276,0.224-0.5,0.5-0.5s0.5,0.224,0.5,0.5v11    C46.5,50.776,46.276,51,46,51z"/>
</g>
<g>
<path class="st1" d="M48,51c-0.276,0-0.5-0.224-0.5-0.5v-10c0-0.276,0.224-0.5,0.5-0.5s0.5,0.224,0.5,0.5v10    C48.5,50.776,48.276,51,48,51z"/>
</g>
<g>
<path class="st1" d="M41,51c-0.276,0-0.5-0.224-0.5-0.5v-16c0-0.276,0.224-0.5,0.5-0.5s0.5,0.224,0.5,0.5v16    C41.5,50.776,41.276,51,41,51z"/>
</g>
<g>
<path class="st1" d="M43,51c-0.276,0-0.5-0.224-0.5-0.5v-14c0-0.276,0.224-0.5,0.5-0.5s0.5,0.224,0.5,0.5v14    C43.5,50.776,43.276,51,43,51z"/>
</g>
<g>
<path class="st1" d="M33,19h-2c-0.167,0-0.323-0.083-0.416-0.223l-2.5-3.75c-0.112-0.168-0.112-0.387,0-0.555l1-1.5    c0.186-0.278,0.646-0.278,0.832,0l3.5,5.25c0.102,0.153,0.112,0.351,0.025,0.513S33.185,19,33,19z M31.268,18h0.798L29.5,14.151    l-0.399,0.599L31.268,18z"/>
</g>
<g>
<path class="st1" d="M33,19h-2c-0.185,0-0.354-0.102-0.441-0.264s-0.077-0.36,0.025-0.513l3.5-5.25    c0.186-0.278,0.646-0.278,0.832,0l1,1.5c0.112,0.168,0.112,0.387,0,0.555l-2.5,3.75C33.323,18.917,33.167,19,33,19z M31.934,18    h0.798l2.167-3.25L34.5,14.151L31.934,18z"/>
</g>
<g>
<path class="st1" d="M39,19H25c-0.276,0-0.5-0.224-0.5-0.5S24.724,18,25,18h14c0.276,0,0.5,0.224,0.5,0.5S39.276,19,39,19z"/>
</g>
</g>
</svg>