<?xml version="1.0" ?><!-- Uploaded to: SVG Repo, www.svgrepo.com, Generator: SVG Repo Mixer Tools -->
<svg fill="currentColor" width="800px" height="800px" viewBox="0 0 96 96" id="Layer_1_1_" version="1.1" xml:space="preserve" xmlns="http://www.w3.org/2000/svg" xmlns:xlink="http://www.w3.org/1999/xlink"><path d="M38,25v8h20v-8h-9v-5.141c1.722-0.446,3-1.997,3-3.859c0-2.209-1.791-4-4-4s-4,1.791-4,4c0,1.862,1.278,3.412,3,3.859V25H38  z"/><path d="M11,35c0,5.523,4.477,10,10,10v-4h8v-4h-8v-2h-4v-6.793c2.025,1.135,4.6,1.043,6.52-0.307c0.64-0.45,0.64-1.35,0-1.8  c-2.086-1.467-4.954-1.467-7.04,0C16.16,26.325,16,26.663,16,27c0-0.337-0.16-0.675-0.48-0.9c-2.086-1.467-4.954-1.467-7.04,0  c-0.64,0.45-0.64,1.35,0,1.8c1.92,1.35,4.495,1.441,6.52,0.307V35H11z"/><path d="M87.52,27.9c0.64-0.45,0.64-1.35,0-1.8c-2.086-1.467-4.954-1.467-7.04,0C80.16,26.325,80,26.663,80,27  c0-0.337-0.16-0.675-0.48-0.9c-2.086-1.467-4.954-1.467-7.04,0c-0.64,0.45-0.64,1.35,0,1.8c1.92,1.35,4.495,1.441,6.52,0.307V35h-4  v2h-8v4h8v4c5.523,0,10-4.477,10-10h-4v-6.793C83.025,29.341,85.6,29.25,87.52,27.9z"/><path d="M64,36H32v22h6.739C35.024,62.46,33,68.024,33,73.899V74h2v-0.101c0-5.983,2.293-11.608,6.441-15.899H47v5h2v-5h5.559  C58.707,62.291,61,67.916,61,73.899V74h2v-0.101C63,68.024,60.976,62.46,57.261,58H64V36z M48,53c-3.314,0-6-2.686-6-6s2.686-6,6-6  s6,2.686,6,6S51.314,53,48,53z"/><path d="M42.195,73.977c1.763,1.176,3.784,1.763,5.805,1.763s4.042-0.587,5.805-1.763l-1.109-1.664  c-2.852,1.902-6.539,1.902-9.391,0L42.195,73.977z"/><path d="M51.947,68.789L51.053,67c-1.912,0.955-4.193,0.955-6.105,0l-0.895,1.789c1.236,0.618,2.592,0.927,3.947,0.927  S50.711,69.407,51.947,68.789z"/><path d="M40.553,79.387c2.332,1.166,4.89,1.749,7.447,1.749s5.115-0.583,7.447-1.749l-0.895-1.789  c-4.104,2.053-9.002,2.053-13.105,0L40.553,79.387z"/><path d="M90,7c0-2.761-2.239-5-5-5s-5,2.239-5,5c0,0.05,0.013,0.096,0.015,0.146C79.689,7.06,79.353,7,79,7c-2.209,0-4,1.791-4,4  c0,2.209,1.791,4,4,4h11c2.209,0,4-1.791,4-4C94,8.791,92.209,7,90,7z"/><path d="M84,84.931c3.945-0.493,7-3.852,7-7.931c-4.079,0-7.438,3.055-7.931,7h-0.138c-0.493-3.945-3.852-7-7.931-7  c0,4.079,3.055,7.438,7,7.931v2.915L70,86l-12,3l-4-2h-5l-6,1l-6-1l-7-1l-7,1l-6,2l-4-1.6v-3.469c3.945-0.493,7-3.852,7-7.931  c-4.079,0-7.438,3.055-7.931,7h-0.138C11.438,79.055,8.079,76,4,76c0,4.079,3.055,7.438,7,7.931v3.402L6,89H2v5h92v-8l-10,1.818  V84.931z"/></svg>